<svg width="24" height="24" viewBox="0 0 24 24" fill="none" xmlns="http://www.w3.org/2000/svg">
<path d="M11.6667 12.6667C12.219 12.6667 12.6667 12.2189 12.6667 11.6667C12.6667 11.1144 12.219 10.6667 11.6667 10.6667C11.1144 10.6667 10.6667 11.1144 10.6667 11.6667C10.6667 12.2189 11.1144 12.6667 11.6667 12.6667Z" stroke="white" stroke-width="2" stroke-linecap="round" stroke-linejoin="round"/>
<path d="M11.6667 6C12.219 6 12.6667 5.55228 12.6667 5C12.6667 4.44772 12.219 4 11.6667 4C11.1144 4 10.6667 4.44772 10.6667 5C10.6667 5.55228 11.1144 6 11.6667 6Z" stroke="white" stroke-width="2" stroke-linecap="round" stroke-linejoin="round"/>
<path d="M11.6667 20C12.219 20 12.6667 19.5523 12.6667 19C12.6667 18.4477 12.219 18 11.6667 18C11.1144 18 10.6667 18.4477 10.6667 19C10.6667 19.5523 11.1144 20 11.6667 20Z" stroke="white" stroke-width="2" stroke-linecap="round" stroke-linejoin="round"/>
</svg>
