<svg width="24" height="24" viewBox="0 0 24 24" fill="none" xmlns="http://www.w3.org/2000/svg">
<path d="M18.5778 14.4667C19.2889 15.8 20 16.3333 20 16.3333H4C4 16.3333 6.66667 14.5556 6.66667 8.33333C6.66667 5.4 9.06667 3 12 3C12.6222 3 13.1556 3.08889 13.6889 3.26667M10.4885 19.8889C10.6373 20.1595 10.8561 20.3852 11.1219 20.5424C11.3877 20.6996 11.6908 20.7825 11.9997 20.7825C12.3085 20.7825 12.6116 20.6996 12.8774 20.5424C13.1433 20.3852 13.362 20.1595 13.5108 19.8889" stroke="white" stroke-width="1.8" stroke-linecap="round" stroke-linejoin="round"/>
<path d="M17.3334 11C18.8062 11 20.0001 9.80611 20.0001 8.33335C20.0001 6.86059 18.8062 5.66669 17.3334 5.66669C15.8607 5.66669 14.6667 6.86059 14.6667 8.33335C14.6667 9.80611 15.8607 11 17.3334 11Z" fill="#DD403C" stroke="#DD403C" stroke-width="1.77778" stroke-linecap="round" stroke-linejoin="round"/>
</svg>
