<svg width="24" height="24" viewBox="0 0 24 24" fill="none" xmlns="http://www.w3.org/2000/svg">
<path d="M5.59994 20H18.3999C18.8243 20 19.2313 19.8314 19.5313 19.5314C19.8314 19.2313 19.9999 18.8243 19.9999 18.4V5.6C19.9999 5.17565 19.8314 4.76869 19.5313 4.46863C19.2313 4.16857 18.8243 4 18.3999 4H8.79994C8.37559 4 7.96863 4.16857 7.66857 4.46863C7.36851 4.76869 7.19994 5.17565 7.19994 5.6V18.4C7.19994 18.8243 7.03137 19.2313 6.73131 19.5314C6.43125 19.8314 6.02429 20 5.59994 20ZM5.59994 20C5.17559 20 4.76863 19.8314 4.46857 19.5314C4.16851 19.2313 3.99994 18.8243 3.99994 18.4V11.2C3.99994 10.32 4.71994 9.6 5.59994 9.6H7.19994M16.8 13.6H10.4M14.4 16.8H10.4M10.4 7.2H16.8V10.4H10.4V7.2Z" stroke="white" stroke-width="1.6" stroke-linecap="round" stroke-linejoin="round"/>
</svg>
