<svg width="24" height="24" viewBox="0 0 24 24" fill="none" xmlns="http://www.w3.org/2000/svg">
<path d="M20.13 18C20.0295 17.712 19.9624 17.4133 19.93 17.11C19.26 17.81 18.45 18.16 17.52 18.16C16.69 18.16 16 17.92 15.47 17.45C14.94 17 14.67 16.39 14.67 15.66C14.67 14.78 15 14.1 15.67 13.61C16.34 13.12 17.28 12.88 18.5 12.88H19.9V12.24C19.9 11.75 19.75 11.36 19.45 11.07C19.15 10.78 18.7 10.64 18.12 10.64C17.6 10.64 17.17 10.76 16.82 11C16.47 11.25 16.3 11.54 16.3 11.89H14.84C14.84 11.46 14.99 11.05 15.29 10.65C15.57 10.25 16 9.94 16.51 9.71C17.02 9.5 17.57 9.36 18.2 9.36C19.18 9.36 19.94 9.6 20.49 10.09C21.04 10.58 21.33 11.25 21.35 12.11V16C21.35 16.8 21.45 17.42 21.65 17.88V18H20.13ZM17.73 16.88C18.18 16.88 18.61 16.77 19.02 16.56C19.42 16.35 19.72 16.07 19.9 15.73V14.16H18.77C17 14.16 16.11 14.63 16.11 15.57C16.11 16 16.26 16.3 16.57 16.53C16.87 16.76 17.25 16.88 17.73 16.88ZM5.53 13.71H9.6L7.57 8.29L5.53 13.71ZM6.71 6H8.43L13.14 18H11.21L10.24 15.43H4.89L3.93 18H2L6.71 6Z" fill="white"/>
</svg>
