<svg width="24" height="24" viewBox="0 0 24 24" fill="none" xmlns="http://www.w3.org/2000/svg">
<path d="M19 2.99997H5C3.89543 2.99997 3 3.8954 3 4.99997V19C3 20.1045 3.89543 21 5 21H19C20.1046 21 21 20.1045 21 19V4.99997C21 3.8954 20.1046 2.99997 19 2.99997Z" stroke="white" stroke-width="1.33" stroke-linecap="round" stroke-linejoin="round"/>
<path d="M10.9995 9H14.9995C15.5299 9 16.0387 8.78929 16.4137 8.41421C16.7888 8.03914 16.9995 7.53043 16.9995 7V3" stroke="white" stroke-width="1.33" stroke-linecap="round" stroke-linejoin="round"/>
<path d="M9.00049 10.9999C10.1051 10.9999 11.0005 10.1045 11.0005 8.99994C11.0005 7.89537 10.1051 6.99994 9.00049 6.99994C7.89592 6.99994 7.00049 7.89537 7.00049 8.99994C7.00049 10.1045 7.89592 10.9999 9.00049 10.9999Z" stroke="white" stroke-width="1.33" stroke-linecap="round" stroke-linejoin="round"/>
<path d="M7.00049 21V17C7.00049 16.4696 7.2112 15.9609 7.58627 15.5858C7.96135 15.2107 8.47006 15 9.00049 15H13.0005" stroke="white" stroke-width="1.33" stroke-linecap="round" stroke-linejoin="round"/>
<path d="M15.0005 16.9999C16.1051 16.9999 17.0005 16.1045 17.0005 14.9999C17.0005 13.8954 16.1051 12.9999 15.0005 12.9999C13.8959 12.9999 13.0005 13.8954 13.0005 14.9999C13.0005 16.1045 13.8959 16.9999 15.0005 16.9999Z" stroke="white" stroke-width="1.33" stroke-linecap="round" stroke-linejoin="round"/>
</svg>
