<svg width="24" height="24" viewBox="0 0 24 24" fill="none" xmlns="http://www.w3.org/2000/svg">
<path d="M21.5512 5.94649C20.9159 6.22014 20.2481 6.41069 19.5641 6.51344C19.8839 6.45857 20.3544 5.88248 20.5417 5.6493C20.8262 5.29758 21.043 4.89605 21.1812 4.46512C21.1812 4.43312 21.2131 4.3874 21.1812 4.36454C21.1651 4.35573 21.147 4.35112 21.1286 4.35112C21.1103 4.35112 21.0922 4.35573 21.0761 4.36454C20.3335 4.76708 19.5431 5.07431 18.7236 5.27896C18.6951 5.2877 18.6647 5.28848 18.6357 5.28123C18.6067 5.27398 18.5803 5.25897 18.5592 5.23781C18.4954 5.16179 18.4267 5.09001 18.3536 5.02292C18.0194 4.7232 17.6402 4.47788 17.2299 4.29595C16.6761 4.06853 16.0779 3.97003 15.4804 4.00791C14.9007 4.04456 14.3348 4.20019 13.8177 4.46512C13.3086 4.74445 12.8611 5.12391 12.5022 5.58072C12.1246 6.0509 11.852 6.59655 11.7028 7.18097C11.5797 7.73687 11.5657 8.31142 11.6617 8.87266C11.6617 8.96867 11.6617 8.98239 11.5794 8.96867C8.32254 8.4886 5.65032 7.33185 3.46686 4.84918C3.37094 4.73945 3.32069 4.73945 3.24303 4.84918C2.29291 6.29397 2.75427 8.58004 3.94192 9.70935C4.1018 9.86023 4.26624 10.0065 4.43982 10.1437C3.89529 10.105 3.36406 9.95731 2.8776 9.70935C2.78625 9.64992 2.736 9.68192 2.73143 9.79165C2.71848 9.94378 2.71848 10.0967 2.73143 10.2489C2.82674 10.9779 3.1138 11.6686 3.56324 12.2502C4.01269 12.8318 4.6084 13.2835 5.28945 13.5591C5.45548 13.6303 5.62847 13.6839 5.80563 13.7191C5.30152 13.8184 4.7845 13.8339 4.27538 13.7648C4.16575 13.742 4.12464 13.8014 4.16575 13.9066C4.83723 15.7354 6.29439 16.2932 7.36328 16.6041C7.50945 16.627 7.65562 16.627 7.82007 16.6636C7.82007 16.6636 7.82007 16.6636 7.79266 16.691C7.47748 17.2671 6.20303 17.6557 5.61834 17.8569C4.55113 18.2406 3.41329 18.3872 2.28378 18.2867C2.10563 18.2592 2.06452 18.2638 2.01884 18.2867C1.97316 18.3095 2.01884 18.3598 2.06909 18.4055C2.29748 18.5564 2.52587 18.689 2.76341 18.817C3.47054 19.2031 4.21812 19.5098 4.99254 19.7315C9.00315 20.8379 13.5162 20.0241 16.5265 17.0293C18.8927 14.6793 19.724 11.4376 19.724 8.19141C19.724 8.06796 19.8748 7.99481 19.9615 7.9308C20.5602 7.46393 21.0879 6.91258 21.5283 6.29397C21.6046 6.20176 21.6437 6.08436 21.638 5.96478C21.638 5.8962 21.638 5.90992 21.5512 5.94649Z" fill="white"/>
</svg>
