<svg width="24" height="24" viewBox="0 0 24 24" fill="none" xmlns="http://www.w3.org/2000/svg">
<path d="M10.3406 12.7538C10.6861 13.2162 11.127 13.5988 11.6331 13.8756C12.1393 14.1525 12.6991 14.3171 13.2745 14.3583C13.8498 14.3996 14.4273 14.3165 14.9677 14.1147C15.5082 13.9129 15.9989 13.5971 16.4067 13.1887L18.8203 10.7727C19.5531 10.0132 19.9585 8.99604 19.9493 7.94024C19.9402 6.88444 19.5171 5.87448 18.7713 5.12789C18.0255 4.3813 17.0166 3.95781 15.9618 3.94864C14.9071 3.93946 13.891 4.34534 13.1323 5.07884L11.7486 6.45599M13.5583 11.1432C13.2128 10.6808 12.772 10.2982 12.2658 10.0214C11.7596 9.74452 11.1999 9.57989 10.6245 9.53864C10.0492 9.49739 9.4717 9.58049 8.93126 9.7823C8.39082 9.98411 7.90005 10.2999 7.49225 10.7083L5.07869 13.1243C4.34594 13.8838 3.94048 14.9009 3.94965 15.9567C3.95881 17.0125 4.38186 18.0225 5.12769 18.7691C5.87351 19.5157 6.88243 19.9392 7.93715 19.9483C8.99186 19.9575 10.008 19.5516 10.7667 18.8181L12.1424 17.441" stroke="white" stroke-width="1.8" stroke-linecap="round" stroke-linejoin="round"/>
</svg>
