<svg width="20" height="20" viewBox="0 0 20 20" fill="none" xmlns="http://www.w3.org/2000/svg">
<path d="M8.6172 10.6282C8.90512 11.0135 9.27246 11.3324 9.69429 11.5631C10.1161 11.7938 10.5826 11.931 11.062 11.9653C11.5415 11.9997 12.0227 11.9305 12.4731 11.7623C12.9235 11.5941 13.3324 11.3309 13.6723 10.9906L15.6836 8.97727C16.2942 8.34439 16.6321 7.49676 16.6245 6.61693C16.6168 5.73709 16.2643 4.89546 15.6427 4.2733C15.0212 3.65115 14.1805 3.29824 13.3015 3.29059C12.4226 3.28295 11.5758 3.62118 10.9436 4.23243L9.79046 5.38005M11.2986 9.28603C11.0107 8.90072 10.6434 8.5819 10.2215 8.3512C9.7997 8.12049 9.33323 7.9833 8.85378 7.94893C8.37432 7.91455 7.89309 7.9838 7.44272 8.15198C6.99235 8.32015 6.58338 8.58332 6.24354 8.92362L4.23224 10.937C3.62161 11.5699 3.28373 12.4175 3.29137 13.2973C3.29901 14.1772 3.65155 15.0188 4.27307 15.641C4.89459 16.2631 5.73536 16.616 6.61429 16.6237C7.49322 16.6313 8.33998 16.2931 8.97221 15.6818L10.1187 14.5342" stroke="#CFCFCF" stroke-width="1.5" stroke-linecap="round" stroke-linejoin="round"/>
</svg>
